<?xml version="1.0" encoding="utf-8"?>
<!-- Generator: Adobe Illustrator 28.0.0, SVG Export Plug-In . SVG Version: 6.00 Build 0)  -->
<svg version="1.1" id="Calque_1" xmlns="http://www.w3.org/2000/svg" xmlns:xlink="http://www.w3.org/1999/xlink" x="0px" y="0px"
	 viewBox="0 0 70 70" style="enable-background:new 0 0 70 70;" xml:space="preserve">
<style type="text/css">
	.st0{fill:#FFFFFF;}
</style>
<g id="bouton_fleche">
	<circle id="Ellipse_11" class="st0" cx="35" cy="35" r="35"/>
	<g id="รฐ_x9F__xA6__x86__icon__x22_arrow-left_x22_">
		<path id="Vector" d="M12.8,39.5l-2.6-2.6c-1.1-1.1-1.1-2.9,0-4l23-23c1.1-1.1,2.9-1.1,4,0l23,23c1.1,1.1,1.1,2.9,0,4l-2.6,2.6
			c-1.1,1.1-3,1.1-4.1,0L39.9,25.2v34c0,1.6-1.3,2.8-2.8,2.8h-3.8c-1.6,0-2.8-1.3-2.8-2.8v-34L16.9,39.4
			C15.8,40.6,13.9,40.6,12.8,39.5z"/>
	</g>
</g>
</svg>
