<svg width="70" height="70" viewBox="0 0 70 70" fill="none" xmlns="http://www.w3.org/2000/svg">
<g id="bouton fleche">
<circle id="Ellipse 11" cx="35" cy="35" r="35" fill="#CB7266"/>
<g id="&#240;&#159;&#166;&#134; icon &#34;arrow-left&#34;">
<path id="Vector" d="M12.8026 39.4657L10.1765 36.8396C9.06461 35.7277 9.06461 33.9297 10.1765 32.8296L33.1604 9.83395C34.2723 8.72202 36.0703 8.72202 37.1704 9.83395L60.1661 32.8296C61.278 33.9415 61.278 35.7395 60.1661 36.8396L57.54 39.4657C56.4162 40.5894 54.5827 40.5658 53.4826 39.4184L39.9029 25.1644L39.9029 59.161C39.9029 60.7343 38.6372 62 37.0639 62L33.2786 62C31.7054 62 30.4397 60.7343 30.4397 59.161L30.4397 25.1644L16.8599 39.4184C15.7598 40.5776 13.9263 40.6013 12.8026 39.4657Z" fill="black"/>
</g>
</g>
</svg>
