<svg width="24" height="24" viewBox="0 0 24 24" fill="none" xmlns="http://www.w3.org/2000/svg">
<g id="icone telephone">
<path id="Vector" d="M21.4286 0H2.57143C1.88944 0 1.23539 0.270918 0.753154 0.753154C0.270918 1.23539 0 1.88944 0 2.57143L0 21.4286C0 22.1106 0.270918 22.7646 0.753154 23.2468C1.23539 23.7291 1.88944 24 2.57143 24H21.4286C22.1106 24 22.7646 23.7291 23.2468 23.2468C23.7291 22.7646 24 22.1106 24 21.4286V2.57143C24 1.88944 23.7291 1.23539 23.2468 0.753154C22.7646 0.270918 22.1106 0 21.4286 0ZM20.5505 16.4662L19.747 19.9484C19.7061 20.1254 19.6065 20.2834 19.4644 20.3966C19.3223 20.5097 19.146 20.5714 18.9643 20.5714C10.3929 20.5714 3.42857 13.6227 3.42857 5.03571C3.43495 4.85574 3.49892 4.68257 3.61108 4.54168C3.72323 4.40078 3.87765 4.29961 4.05161 4.25304L7.53375 3.44946C7.59315 3.4369 7.65359 3.42991 7.71429 3.42857C7.86968 3.43641 8.02014 3.48571 8.15005 3.57134C8.27995 3.65697 8.38457 3.77582 8.45304 3.91554L10.0602 7.66554C10.0995 7.76664 10.1215 7.8737 10.125 7.98214C10.1119 8.22002 10.0061 8.44331 9.83036 8.60411L7.80054 10.2648C9.03044 12.8716 11.1284 14.9696 13.7352 16.1995L15.3959 14.1696C15.5567 13.9939 15.78 13.8881 16.0179 13.875C16.1263 13.8785 16.2334 13.9004 16.3345 13.9398L20.0845 15.547C20.2243 15.6153 20.3432 15.7199 20.4288 15.8499C20.5144 15.9798 20.5637 16.1303 20.5714 16.2857C20.5704 16.3464 20.5634 16.4069 20.5505 16.4662Z" fill="#CB7266"/>
</g>
</svg>
