<svg width="40" height="39" viewBox="0 0 40 39" fill="none" xmlns="http://www.w3.org/2000/svg">
<g id="Calque_1" clip-path="url(#clip0_0_66)">
<path id="Vector" d="M9.38852 37.4883C9.30531 37.4883 9.21878 37.4682 9.14224 37.4214C8.90262 37.2843 8.81942 36.9766 8.95587 36.7358L11.3687 32.495C11.5052 32.2542 11.8113 32.1706 12.051 32.3077C12.2906 32.4448 12.3738 32.7525 12.2373 32.9933L9.82449 37.2341C9.73131 37.3946 9.5649 37.4883 9.39184 37.4883H9.38852Z" fill="#CB7266"/>
<path id="Vector_2" d="M19.193 38.2609C18.9567 38.2609 18.7437 38.0903 18.7004 37.8462L18.0747 34.2843C18.0281 34.01 18.2079 33.7525 18.4808 33.7023C18.7537 33.6522 19.0099 33.8361 19.0598 34.1104L19.6855 37.6722C19.7321 37.9465 19.5524 38.204 19.2795 38.2542C19.2495 38.2609 19.2196 38.2609 19.193 38.2609Z" fill="#CB7266"/>
<path id="Vector_3" d="M39.9634 26.8696C39.5707 25.786 36.3425 27.2274 31.4203 24.4248C28.9475 23.0167 28.7279 22.6856 25.9323 20.1672C20.9369 15.6689 20.5841 17.1137 15.2359 12.9766C10.763 9.5184 11.1391 4.25085 6.76266 5.22743C4.9289 5.63546 4.15346 6.90636 3.85726 8.51171L0.239655 9.75252C-0.0864954 9.86623 -0.0798393 10.3345 0.252967 10.4314L3.71083 11.4649C3.7674 12.9498 3.92715 14.4549 3.87723 15.6957C3.54442 24.0435 3.69086 26.3311 5.92399 29.4482C11.2589 36.893 25.1835 34.5284 31.3471 32.5886C37.7037 30.5886 40.3462 27.9365 39.9601 26.8629L39.9634 26.8696Z" fill="#CB7266"/>
<path id="Vector_4" d="M4.69925 0.538462L6.34331 2.50502L7.61796 0.110368C7.69783 -0.0367893 7.9075 -0.0367893 7.98738 0.110368L9.19214 2.38127L10.6997 0.615385C10.8262 0.468227 11.0692 0.558528 11.0692 0.752508V4.37124C11.0692 4.48829 10.976 4.58194 10.8595 4.58194H4.5395C4.42302 4.58194 4.32983 4.48829 4.32983 4.37124V0.675585C4.32983 0.478261 4.57278 0.391304 4.69925 0.541806V0.538462Z" fill="#CB7266"/>
<path id="Vector_5" d="M7.4948 7.67222C8.43331 7.55851 9.28862 8.23409 9.40178 9.17723C9.51493 10.1204 8.84266 10.9799 7.90415 11.0936C6.96564 11.2073 6.11032 10.5317 5.99717 9.58861C5.88401 8.64546 6.55628 7.78593 7.4948 7.67222Z" fill="#CB7266"/>
</g>
<defs>
<clipPath id="clip0_0_66">
<rect width="40" height="38.2609" fill="white"/>
</clipPath>
</defs>
</svg>
