<svg width="24" height="24" viewBox="0 0 24 24" fill="none" xmlns="http://www.w3.org/2000/svg">
<g id="icon instagramm">
<path id="Vector" d="M23.9227 7.08371C23.908 6.07651 23.7215 5.07728 23.3643 4.13527C22.7392 2.52667 21.4665 1.25468 19.8552 0.631999C18.9236 0.282071 17.9387 0.0944673 16.9418 0.0731789C15.6597 0.0159664 15.2532 0 11.9987 0C8.74411 0 8.32697 8.92186e-08 7.0542 0.0731789C6.05864 0.0944673 5.07375 0.282071 4.14216 0.631999C2.53088 1.25468 1.25677 2.52667 0.633052 4.13527C0.282541 5.06531 0.0932919 6.04856 0.0746335 7.04247C0.0173256 8.32376 0 8.72957 0 11.9787C0 15.2279 -9.92969e-09 15.643 0.0746335 16.915C0.0946246 17.9102 0.282541 18.8921 0.633052 19.8248C1.25811 21.4321 2.53088 22.7041 4.14349 23.3268C5.07108 23.6887 6.05598 23.8936 7.05553 23.9255C8.33896 23.9827 8.74545 24 12 24C15.2546 24 15.6717 24 16.9445 23.9255C17.94 23.9055 18.9249 23.7179 19.8578 23.368C21.4691 22.744 22.7419 21.472 23.3669 19.8647C23.7175 18.9334 23.9054 17.9514 23.9254 16.9549C23.9827 15.6749 24 15.2691 24 12.0186C23.9973 8.76949 23.9973 8.35703 23.9227 7.08371ZM11.9907 18.1231C8.58685 18.1231 5.82941 15.3702 5.82941 11.9721C5.82941 8.5739 8.58685 5.82104 11.9907 5.82104C15.3918 5.82104 18.1519 8.5739 18.1519 11.9721C18.1519 15.3702 15.3918 18.1231 11.9907 18.1231ZM18.3972 7.02783C17.6015 7.02783 16.9605 6.38652 16.9605 5.59353C16.9605 4.80053 17.6015 4.15922 18.3972 4.15922C19.1901 4.15922 19.8325 4.80053 19.8325 5.59353C19.8325 6.38652 19.1901 7.02783 18.3972 7.02783Z" fill="#CB7266"/>
<path id="Vector_2" d="M12 15.8571C14.1302 15.8571 15.8571 14.1302 15.8571 12C15.8571 9.86972 14.1302 8.14282 12 8.14282C9.86972 8.14282 8.14282 9.86972 8.14282 12C8.14282 14.1302 9.86972 15.8571 12 15.8571Z" fill="#CB7266"/>
</g>
</svg>
