<svg width="25" height="19" viewBox="0 0 25 19" fill="none" xmlns="http://www.w3.org/2000/svg">
<g id="icone mail">
<path id="Vector" d="M21.1591 0H3.02273C2.22131 0.000857281 1.45297 0.319598 0.886283 0.886283C0.319598 1.45297 0.000857281 2.22131 0 3.02273V15.9773C0.000857281 16.7787 0.319598 17.547 0.886283 18.1137C1.45297 18.6804 2.22131 18.9991 3.02273 19H21.1591C21.9605 18.9991 22.7288 18.6804 23.2955 18.1137C23.8622 17.547 24.181 16.7787 24.1818 15.9773V3.02273C24.181 2.22131 23.8622 1.45297 23.2955 0.886283C22.7288 0.319598 21.9605 0.000857281 21.1591 0ZM20.3937 4.99992L12.621 11.0454C12.4694 11.1632 12.2829 11.2272 12.0909 11.2272C11.8989 11.2272 11.7124 11.1632 11.5609 11.0454L3.78813 4.99992C3.6968 4.93095 3.6201 4.84452 3.56246 4.74566C3.50483 4.64679 3.46742 4.53746 3.45241 4.42401C3.4374 4.31056 3.44509 4.19526 3.47502 4.08481C3.50496 3.97436 3.55654 3.87095 3.62679 3.78061C3.69703 3.69027 3.78453 3.61479 3.88419 3.55855C3.98386 3.50232 4.09371 3.46645 4.20736 3.45304C4.32101 3.43962 4.43619 3.44893 4.54621 3.48042C4.65623 3.5119 4.75889 3.56494 4.84824 3.63645L12.0909 9.26952L19.3336 3.63645C19.5147 3.49968 19.7423 3.4397 19.9673 3.46947C20.1923 3.49924 20.3965 3.61637 20.5358 3.79553C20.6751 3.9747 20.7383 4.20149 20.7117 4.42687C20.6851 4.65225 20.5709 4.85811 20.3937 4.99992Z" fill="#CB7266"/>
</g>
</svg>
