<svg width="159" height="115" viewBox="0 0 159 115" fill="none" xmlns="http://www.w3.org/2000/svg">
<g id="Calque_1" clip-path="url(#clip0_41_15)">
<path id="Vector" d="M38.55 110.94L37.26 110.39C36.89 110.23 36.72 109.79 36.9 109.43L43.85 94.9301C44.01 94.5901 44.42 94.4301 44.77 94.5801L46.06 95.1301C46.43 95.2901 46.6 95.7301 46.42 96.0901L39.47 110.59C39.31 110.93 38.9 111.09 38.55 110.94Z" fill="white"/>
<path id="Vector_2" d="M83.2339 94.7287L81.8475 94.9856C81.462 95.0571 81.2073 95.4276 81.2788 95.8131L84.5973 113.718C84.6688 114.104 85.0393 114.358 85.4248 114.287L86.8112 114.03C87.1968 113.958 87.4514 113.588 87.3799 113.202L84.0614 95.2974C83.9899 94.9118 83.6195 94.6572 83.2339 94.7287Z" fill="white"/>
<path id="Vector_3" d="M123.9 64.59C111.38 59.77 95.96 40.87 84.33 34.84C72.46 28.69 50.08 28.74 45.89 24.44C41.7 20.14 38.01 10.17 36.5 6.87C34.99 3.57 30.55 0 25.28 0C20.01 0 17.74 1.81 16.44 1.96C15.14 2.1 13.51 1.12 11.32 2.27C9.12997 3.42 8.96997 5.44 7.97997 6.37C6.98997 7.3 2.84997 9.26 0.719972 10.29C-0.390028 10.82 -0.150028 12.46 1.05997 12.65C5.37997 13.32 11.56 12.65 12.82 14.61C14.79 17.68 11.1 31.41 13.23 45.24C15.36 59.06 28.02 80.2 44.65 85.82C61.28 91.44 147 89.29 156.38 81.83C165.77 74.37 136.42 69.43 123.9 64.6V64.59ZM22.29 11.46C20.88 11.46 19.74 10.32 19.74 8.91C19.74 7.5 20.88 6.36 22.29 6.36C23.7 6.36 24.84 7.5 24.84 8.91C24.84 10.32 23.7 11.46 22.29 11.46Z" fill="white"/>
</g>
<defs>
<clipPath id="clip0_41_15">
<rect width="158.2" height="114.31" fill="white"/>
</clipPath>
</defs>
</svg>
