<svg width="159" height="115" viewBox="0 0 159 115" fill="none" xmlns="http://www.w3.org/2000/svg">
<g id="Calque_1" clip-path="url(#clip0_41_15)">
<path id="Vector" d="M119.65 110.94L120.94 110.39C121.31 110.23 121.48 109.79 121.3 109.43L114.35 94.9301C114.19 94.5901 113.78 94.4301 113.43 94.5801L112.14 95.1301C111.77 95.2901 111.6 95.7301 111.78 96.0901L118.73 110.59C118.89 110.93 119.3 111.09 119.65 110.94Z" fill="white"/>
<path id="Vector_2" d="M74.9662 94.7287L76.3525 94.9856C76.7381 95.0571 76.9927 95.4276 76.9213 95.8131L73.6028 113.718C73.5313 114.104 73.1608 114.358 72.7753 114.287L71.3889 114.03C71.0033 113.958 70.7487 113.588 70.8202 113.202L74.1387 95.2974C74.2101 94.9118 74.5806 94.6572 74.9662 94.7287Z" fill="white"/>
<path id="Vector_3" d="M34.3 64.59C46.82 59.77 62.24 40.87 73.87 34.84C85.74 28.69 108.12 28.74 112.31 24.44C116.5 20.14 120.19 10.17 121.7 6.87C123.21 3.57 127.65 0 132.92 0C138.19 0 140.46 1.81 141.76 1.96C143.06 2.1 144.69 1.12 146.88 2.27C149.07 3.42 149.23 5.44 150.22 6.37C151.21 7.3 155.35 9.26 157.48 10.29C158.59 10.82 158.35 12.46 157.14 12.65C152.82 13.32 146.64 12.65 145.38 14.61C143.41 17.68 147.1 31.41 144.97 45.24C142.84 59.06 130.18 80.2 113.55 85.82C96.92 91.44 11.2 89.29 1.82004 81.83C-7.56996 74.37 21.78 69.43 34.3 64.6V64.59ZM135.91 11.46C137.32 11.46 138.46 10.32 138.46 8.91C138.46 7.5 137.32 6.36 135.91 6.36C134.5 6.36 133.36 7.5 133.36 8.91C133.36 10.32 134.5 11.46 135.91 11.46Z" fill="white"/>
</g>
<defs>
<clipPath id="clip0_41_15">
<rect width="158.2" height="114.31" fill="white" transform="matrix(-1 0 0 1 158.2 0)"/>
</clipPath>
</defs>
</svg>
