<svg width="193" height="214" viewBox="0 0 193 214" fill="none" xmlns="http://www.w3.org/2000/svg">
<g id="Calque_1" clip-path="url(#clip0_41_10)">
<g id="Group 30">
<path id="Vector" opacity="0.5" d="M20.83 82.8899C20.83 82.8899 7.58005 64.9299 6.14005 55.0299C4.70005 45.1299 -3.23995 -2.63009 1.48005 0.109911C6.20005 2.84991 21.8 19.5699 30.74 33.2699C39.68 46.9699 66.48 127.18 66.48 127.18L32.81 113.88L20.83 82.8999V82.8899Z" fill="white"/>
<path id="Vector_2" d="M78.6599 180.61H78.0499C77.4369 180.61 76.9399 181.107 76.9399 181.72V212C76.9399 212.613 77.4369 213.11 78.0499 213.11H78.6599C79.273 213.11 79.7699 212.613 79.7699 212V181.72C79.7699 181.107 79.273 180.61 78.6599 180.61Z" fill="white"/>
<path id="Vector_3" d="M35.8594 177.717L17.7359 191.418C17.2469 191.788 17.1502 192.484 17.5199 192.973L17.8938 193.468C18.2635 193.957 18.9596 194.053 19.4486 193.684L37.5721 179.982C38.0611 179.612 38.1578 178.916 37.7881 178.427L37.4142 177.933C37.0445 177.444 36.3484 177.347 35.8594 177.717Z" fill="white"/>
<path id="Vector_4" d="M192.22 15.56C189.47 10.24 151.07 32.13 138.73 36.82C126.39 41.51 98.43 46.66 86.02 55.67C73.61 64.67 50.09 103.7 50.09 103.7L41.72 85.61C41.72 85.61 37.71 79.58 32.18 79.56C26.65 79.54 23.8 83.06 22.3 83.99C20.8 84.91 18.91 84.45 18.09 85.81C17.27 87.17 16.69 89.74 16.69 89.74L8.81998 93.15C7.96998 93.52 8.12998 94.76 9.03998 94.9C12.87 95.47 18.84 96.76 20.71 99.36C23.53 103.29 20.15 111.34 19.74 120.22C19.33 129.1 19.74 152.63 33.18 162.8C46.62 172.97 103.72 179.66 116.56 179.41C129.4 179.16 156.52 170.29 159.12 165.34C161.72 160.39 121.51 155.77 116.56 152.63C111.62 149.49 98.92 142.65 97.32 136.99C95.72 131.33 116.75 109.96 125.75 101.87C135.51 93.1 158.48 87.71 172.78 72.55C187.08 57.39 194.96 20.9 192.21 15.57L192.22 15.56ZM30.05 93.1C28.56 93.1 27.35 91.89 27.35 90.4C27.35 88.91 28.56 87.7 30.05 87.7C31.54 87.7 32.75 88.91 32.75 90.4C32.75 91.89 31.54 93.1 30.05 93.1Z" fill="white"/>
</g>
</g>
<defs>
<clipPath id="clip0_41_10">
<rect width="192.76" height="213.11" fill="white"/>
</clipPath>
</defs>
</svg>
